<svg width="1194" height="362" viewBox="0 0 1194 362" fill="none" xmlns="http://www.w3.org/2000/svg">
<g clip-path="url(#clip0_752_443)">
<rect width="1194" height="362" fill="#4CA06F"/>
<path opacity="0.3" fill-rule="evenodd" clip-rule="evenodd" d="M182.316 123.732C92.8536 118.99 20.2876 265.362 -62.0405 230.032C-127.105 202.111 -27.1438 81.7725 -60.7199 19.438C-96.1486 -46.3359 -205.888 -42.369 -243.528 -106.903C-278.307 -166.53 -278.53 -247.43 -254.011 -311.957C-229.323 -376.927 -150.171 -403.417 -109.453 -459.742C-67.5993 -517.639 -77.6412 -622.247 -11.0322 -648.074C62.01 -676.396 143.692 -620.903 213.256 -584.873C268.522 -556.248 291.93 -481.485 350.617 -460.76C398.113 -443.987 451.492 -501.897 498.614 -484.1C542.938 -467.359 550.516 -405.366 584.55 -372.404C624.721 -333.498 741.665 -322.609 717.355 -272.247C676.139 -186.861 478.86 -230.436 470.435 -135.998C461.921 -40.5709 685.081 -48.7159 688.872 47.0154C691.68 117.909 542.087 22.9241 477.927 53.2126C436.395 72.8193 448.769 142.375 416.873 175.421C382.528 211.007 337.59 259.3 289.292 248.656C235.294 236.757 237.532 126.659 182.316 123.732Z" stroke="#3ED87C" stroke-width="3"/>
<path opacity="0.3" fill-rule="evenodd" clip-rule="evenodd" d="M1468.15 311.537C1508.22 391.665 1671.33 382.454 1681.28 471.488C1689.14 541.852 1535.14 514.384 1497.52 574.369C1457.84 637.665 1515.49 731.121 1477.98 795.727C1443.31 855.42 1373.08 895.578 1304.87 906.134C1236.18 916.762 1174.05 861.027 1104.96 853.448C1033.95 845.658 947.955 906.063 892.595 860.906C831.888 811.389 839.788 712.956 836.752 634.674C834.34 572.482 887.782 515.197 876.811 453.933C867.933 404.35 791.213 386.546 783.41 336.783C776.071 289.975 826.228 252.762 838.076 206.888C852.059 152.742 803.759 45.6826 859.556 41.9419C954.157 35.5998 1013.72 228.653 1099.99 189.328C1187.17 149.591 1069.85 -40.4172 1151.22 -91.0029C1211.47 -128.464 1202.78 48.5238 1260.81 89.3466C1298.37 115.773 1352.73 70.6548 1397.22 82.0625C1445.13 94.3466 1509.32 109.563 1523.92 156.814C1540.25 209.642 1443.42 262.082 1468.15 311.537Z" stroke="#3ED87C" stroke-width="3"/>
</g>
<defs>
<clipPath id="clip0_752_443">
<rect width="1194" height="362" fill="white"/>
</clipPath>
</defs>
</svg>
