<svg width="25" height="25" viewBox="0 0 25 25" fill="none" xmlns="http://www.w3.org/2000/svg">
<mask id="mask0_1454_10228" style="mask-type:alpha" maskUnits="userSpaceOnUse" x="0" y="0" width="25" height="25">
<rect x="0.816406" y="0.455078" width="24" height="24" fill="#D9D9D9"/>
</mask>
<g mask="url(#mask0_1454_10228)">
<path d="M12.8164 6.45508C12.2664 6.45508 11.7956 6.25924 11.4039 5.86758C11.0122 5.47591 10.8164 5.00508 10.8164 4.45508C10.8164 3.90508 11.0122 3.43424 11.4039 3.04258C11.7956 2.65091 12.2664 2.45508 12.8164 2.45508C13.3664 2.45508 13.8372 2.65091 14.2289 3.04258C14.6206 3.43424 14.8164 3.90508 14.8164 4.45508C14.8164 5.00508 14.6206 5.47591 14.2289 5.86758C13.8372 6.25924 13.3664 6.45508 12.8164 6.45508ZM17.8164 22.4551V17.4551H12.8164C12.2664 17.4551 11.7956 17.2592 11.4039 16.8676C11.0122 16.4759 10.8164 16.0051 10.8164 15.4551V9.45508C10.8164 8.90508 11.0122 8.43424 11.4039 8.04258C11.7956 7.65091 12.2664 7.45508 12.8164 7.45508C13.2164 7.45508 13.5622 7.54258 13.8539 7.71758C14.1456 7.89258 14.4581 8.17174 14.7914 8.55508C15.7081 9.65508 16.5372 10.4092 17.2789 10.8176C18.0206 11.2259 18.8664 11.4384 19.8164 11.4551V13.4551C18.9331 13.4551 18.0414 13.2634 17.1414 12.8801C16.2414 12.4967 15.4664 12.0384 14.8164 11.5051V14.9551H17.8164C18.3664 14.9551 18.8372 15.1509 19.2289 15.5426C19.6206 15.9342 19.8164 16.4051 19.8164 16.9551V22.4551H17.8164ZM10.8164 22.4551C9.43307 22.4551 8.25391 21.9676 7.27891 20.9926C6.30391 20.0176 5.81641 18.8384 5.81641 17.4551C5.81641 16.2551 6.19557 15.1967 6.95391 14.2801C7.71224 13.3634 8.66641 12.7884 9.81641 12.5551V14.6051C9.23307 14.8384 8.75391 15.2092 8.37891 15.7176C8.00391 16.2259 7.81641 16.8051 7.81641 17.4551C7.81641 18.2884 8.10807 18.9967 8.69141 19.5801C9.27474 20.1634 9.98307 20.4551 10.8164 20.4551C11.4664 20.4551 12.0456 20.2676 12.5539 19.8926C13.0622 19.5176 13.4331 19.0384 13.6664 18.4551H15.7164C15.4831 19.6051 14.9081 20.5592 13.9914 21.3176C13.0747 22.0759 12.0164 22.4551 10.8164 22.4551Z" fill="#1C1B1F"/>
</g>
</svg>
