<svg width="50" height="50" viewBox="0 0 50 50" fill="none" xmlns="http://www.w3.org/2000/svg">
<path d="M25 44.5317C28.8629 44.5317 32.6391 43.3863 35.851 41.2401C39.0629 39.094 41.5662 36.0436 43.0445 32.4748C44.5228 28.9059 44.9096 24.9788 44.156 21.1901C43.4023 17.4014 41.5422 13.9213 38.8107 11.1898C36.0792 8.45831 32.599 6.59814 28.8103 5.84452C25.0217 5.09091 21.0946 5.47769 17.5257 6.95596C13.9568 8.43424 10.9065 10.9376 8.76035 14.1495C6.61423 17.3614 5.46874 21.1376 5.46874 25.0005C5.47443 30.1788 7.534 35.1433 11.1956 38.8049C14.8572 42.4665 19.8217 44.5261 25 44.5317ZM25 7.03173C28.5539 7.03173 32.0279 8.08558 34.9829 10.06C37.9378 12.0344 40.2409 14.8408 41.601 18.1241C42.961 21.4075 43.3168 25.0204 42.6235 28.506C41.9301 31.9916 40.2188 35.1933 37.7058 37.7063C35.1928 40.2193 31.9911 41.9306 28.5055 42.624C25.0199 43.3173 21.407 42.9615 18.1236 41.6014C14.8403 40.2414 12.034 37.9383 10.0595 34.9834C8.08509 32.0284 7.03124 28.5544 7.03124 25.0005C7.03641 20.2365 8.9312 15.669 12.2999 12.3004C15.6685 8.9317 20.236 7.0369 25 7.03173ZM16.6348 25.5532C16.5621 25.4807 16.5045 25.3945 16.4652 25.2997C16.4259 25.2048 16.4056 25.1032 16.4056 25.0005C16.4056 24.8978 16.4259 24.7962 16.4652 24.7013C16.5045 24.6065 16.5621 24.5203 16.6348 24.4478L22.8848 18.1978C23.0313 18.0512 23.2302 17.9688 23.4375 17.9688C23.6448 17.9688 23.8436 18.0512 23.9902 18.1978C24.1368 18.3443 24.2192 18.5432 24.2192 18.7505C24.2192 18.9578 24.1368 19.1566 23.9902 19.3032L19.0742 24.2192L32.8125 24.2192C33.0197 24.2192 33.2184 24.3015 33.3649 24.4481C33.5114 24.5946 33.5937 24.7933 33.5937 25.0005C33.5937 25.2077 33.5114 25.4064 33.3649 25.5529C33.2184 25.6994 33.0197 25.7817 32.8125 25.7817L19.0742 25.7817L23.9902 30.6978C24.1368 30.8443 24.2192 31.0432 24.2192 31.2505C24.2192 31.4578 24.1368 31.6566 23.9902 31.8032C23.8436 31.9498 23.6448 32.0322 23.4375 32.0322C23.2302 32.0322 23.0313 31.9498 22.8848 31.8032L16.6348 25.5532Z" fill="black"/>
</svg>
