<svg width="50" height="50" viewBox="0 0 50 50" fill="none" xmlns="http://www.w3.org/2000/svg">
<path d="M25 5.46826C21.1371 5.46826 17.3609 6.61375 14.149 8.75987C10.9371 10.906 8.43376 13.9564 6.95549 17.5252C5.47721 21.0941 5.09043 25.0212 5.84405 28.8099C6.59766 32.5986 8.45784 36.0787 11.1893 38.8102C13.9208 41.5417 17.401 43.4019 21.1897 44.1555C24.9783 44.9091 28.9054 44.5223 32.4743 43.044C36.0432 41.5658 39.0935 39.0624 41.2397 35.8505C43.3858 32.6386 44.5313 28.8624 44.5313 24.9995C44.5256 19.8212 42.466 14.8567 38.8044 11.1951C35.1428 7.53353 30.1783 5.47395 25 5.46826ZM25 42.9683C21.4461 42.9683 17.9721 41.9144 15.0171 39.94C12.0622 37.9656 9.75906 35.1592 8.39905 31.8759C7.03904 28.5925 6.6832 24.9796 7.37652 21.494C8.06985 18.0084 9.78121 14.8067 12.2942 12.2937C14.8072 9.78071 18.0089 8.06935 21.4945 7.37603C24.9801 6.6827 28.593 7.03854 31.8764 8.39855C35.1597 9.75856 37.966 12.0617 39.9405 15.0166C41.9149 17.9716 42.9688 21.4456 42.9688 24.9995C42.9636 29.7635 41.0688 34.331 37.7001 37.6996C34.3315 41.0683 29.764 42.9631 25 42.9683ZM33.3652 24.4468C33.4379 24.5193 33.4955 24.6055 33.5348 24.7003C33.5741 24.7952 33.5944 24.8968 33.5944 24.9995C33.5944 25.1022 33.5741 25.2038 33.5348 25.2987C33.4955 25.3935 33.4379 25.4797 33.3652 25.5522L27.1152 31.8022C26.9687 31.9488 26.7698 32.0312 26.5625 32.0312C26.3552 32.0312 26.1564 31.9488 26.0098 31.8022C25.8632 31.6557 25.7808 31.4568 25.7808 31.2495C25.7808 31.0422 25.8632 30.8434 26.0098 30.6968L30.9258 25.7808H17.1875C16.9803 25.7808 16.7816 25.6985 16.6351 25.5519C16.4886 25.4054 16.4063 25.2067 16.4063 24.9995C16.4063 24.7923 16.4886 24.5936 16.6351 24.4471C16.7816 24.3006 16.9803 24.2183 17.1875 24.2183H30.9258L26.0098 19.3022C25.8632 19.1557 25.7808 18.9568 25.7808 18.7495C25.7808 18.5422 25.8632 18.3434 26.0098 18.1968C26.1564 18.0502 26.3552 17.9678 26.5625 17.9678C26.7698 17.9678 26.9687 18.0502 27.1152 18.1968L33.3652 24.4468Z" fill="black"/>
</svg>
