<svg width="20" height="21" viewBox="0 0 20 21" fill="none" xmlns="http://www.w3.org/2000/svg">
<path d="M10.625 9.87503V14.25C10.625 14.4158 10.5592 14.5748 10.442 14.692C10.3248 14.8092 10.1658 14.875 10 14.875C9.83428 14.875 9.67531 14.8092 9.5581 14.692C9.44089 14.5748 9.37504 14.4158 9.37504 14.25V9.87503C9.37504 9.70927 9.44089 9.5503 9.5581 9.43309C9.67531 9.31588 9.83428 9.25003 10 9.25003C10.1658 9.25003 10.3248 9.31588 10.442 9.43309C10.5592 9.5503 10.625 9.70927 10.625 9.87503ZM13.5032 9.81253L13.0657 14.1875C13.057 14.2694 13.0647 14.3523 13.0881 14.4312C13.1116 14.5102 13.1504 14.5837 13.2024 14.6476C13.2544 14.7115 13.3185 14.7645 13.391 14.8035C13.4636 14.8425 13.5431 14.8668 13.625 14.875C13.6461 14.8762 13.6672 14.8762 13.6883 14.875C13.8431 14.8748 13.9924 14.8172 14.1071 14.7133C14.2218 14.6094 14.2939 14.4666 14.3094 14.3125L14.7469 9.93753C14.7635 9.7726 14.7139 9.60784 14.609 9.47949C14.5041 9.35115 14.3525 9.26973 14.1875 9.25315C14.0226 9.23658 13.8578 9.2862 13.7295 9.3911C13.6012 9.49601 13.5197 9.6476 13.5032 9.81253ZM6.49692 9.81253C6.48034 9.6476 6.39892 9.49601 6.27058 9.3911C6.14223 9.2862 5.97747 9.23658 5.81254 9.25315C5.64761 9.26973 5.49602 9.35115 5.39112 9.47949C5.28621 9.60784 5.23659 9.7726 5.25317 9.93753L5.69067 14.3125C5.70621 14.4672 5.77886 14.6106 5.89443 14.7146C6.01 14.8186 6.16019 14.8758 6.31567 14.875C6.33674 14.8762 6.35787 14.8762 6.37895 14.875C6.46061 14.8668 6.53986 14.8426 6.61217 14.8038C6.68448 14.7649 6.74843 14.7122 6.80038 14.6487C6.85232 14.5851 6.89124 14.512 6.91491 14.4334C6.93857 14.3548 6.94653 14.2723 6.93832 14.1907L6.49692 9.81253ZM18.7446 7.45784L17.5672 16.2907C17.5262 16.5904 17.3781 16.8653 17.1505 17.0645C16.9228 17.2638 16.6307 17.3741 16.3282 17.375H3.67192C3.36935 17.3741 3.07732 17.2638 2.84963 17.0645C2.62194 16.8653 2.47392 16.5904 2.43285 16.2907L1.25551 7.45784C1.24371 7.36955 1.25091 7.27976 1.27665 7.19448C1.30238 7.10921 1.34604 7.03042 1.4047 6.96339C1.46337 6.89636 1.53569 6.84265 1.6168 6.80585C1.69792 6.76906 1.78597 6.75002 1.87504 6.75003H5.34145L9.53129 1.96331C9.58994 1.89681 9.66207 1.84354 9.74289 1.80706C9.82371 1.77058 9.91137 1.75171 10 1.75171C10.0887 1.75171 10.1764 1.77058 10.2572 1.80706C10.338 1.84354 10.4101 1.89681 10.4688 1.96331L14.6586 6.75003H18.125C18.2141 6.75002 18.3022 6.76906 18.3833 6.80585C18.4644 6.84265 18.5367 6.89636 18.5954 6.96339C18.654 7.03042 18.6977 7.10921 18.7234 7.19448C18.7492 7.27976 18.7564 7.36955 18.7446 7.45784ZM7.00239 6.75003H12.9977L10 3.32425L7.00239 6.75003ZM17.411 8.00003H2.5891L3.67192 16.125H16.3282L17.411 8.00003Z" fill="black"/>
</svg>
