<svg width="30" height="30" viewBox="0 0 30 30" fill="none" xmlns="http://www.w3.org/2000/svg">
<rect width="29.0141" height="29.0141" rx="14.507" fill="white"/>
<path d="M20.8676 20.1601L17.7382 17.0313C18.6452 15.9424 19.0975 14.5457 19.001 13.1318C18.9044 11.7179 18.2665 10.3956 17.2199 9.44005C16.1733 8.48449 14.7986 7.96922 13.3818 8.00142C11.9649 8.03362 10.615 8.61081 9.61293 9.61293C8.61081 10.615 8.03362 11.9649 8.00142 13.3818C7.96922 14.7986 8.48449 16.1733 9.44005 17.2199C10.3956 18.2665 11.7179 18.9044 13.1318 19.001C14.5457 19.0975 15.9424 18.6452 17.0313 17.7382L20.1601 20.8676C20.2065 20.914 20.2617 20.9509 20.3224 20.976C20.3831 21.0012 20.4481 21.0141 20.5138 21.0141C20.5795 21.0141 20.6446 21.0012 20.7053 20.976C20.766 20.9509 20.8211 20.914 20.8676 20.8676C20.914 20.8211 20.9509 20.766 20.976 20.7053C21.0012 20.6446 21.0141 20.5795 21.0141 20.5138C21.0141 20.4481 21.0012 20.3831 20.976 20.3224C20.9509 20.2617 20.914 20.2065 20.8676 20.1601ZM9.01381 13.5138C9.01381 12.6238 9.27773 11.7538 9.7722 11.0137C10.2667 10.2737 10.9695 9.69695 11.7917 9.35636C12.614 9.01576 13.5188 8.92665 14.3917 9.10028C15.2646 9.27391 16.0665 9.7025 16.6958 10.3318C17.3251 10.9612 17.7537 11.763 17.9273 12.6359C18.101 13.5088 18.0119 14.4136 17.6713 15.2359C17.3307 16.0582 16.7539 16.761 16.0139 17.2554C15.2739 17.7499 14.4038 18.0138 13.5138 18.0138C12.3207 18.0125 11.1769 17.538 10.3333 16.6943C9.48967 15.8507 9.01514 14.7069 9.01381 13.5138Z" fill="black"/>
</svg>
