<svg width="36" height="36" viewBox="0 0 36 36" fill="none" xmlns="http://www.w3.org/2000/svg">
<rect x="0.40625" y="0.40625" width="35.1875" height="35.1875" rx="17.5938" stroke="#D1D1D1" stroke-width="0.8125"/>
<path d="M25.3311 24.5156L21.7242 20.9095C22.7696 19.6544 23.2909 18.0445 23.1797 16.4149C23.0684 14.7852 22.3331 13.2612 21.1268 12.1598C19.9205 11.0584 18.336 10.4645 16.703 10.5016C15.07 10.5388 13.5141 11.204 12.3591 12.3591C11.204 13.5141 10.5388 15.07 10.5016 16.703C10.4645 18.336 11.0584 19.9205 12.1598 21.1268C13.2612 22.3331 14.7852 23.0684 16.4149 23.1797C18.0445 23.2909 19.6544 22.7696 20.9095 21.7242L24.5156 25.3311C24.5692 25.3847 24.6328 25.4271 24.7027 25.4561C24.7727 25.4851 24.8477 25.5 24.9234 25.5C24.9991 25.5 25.0741 25.4851 25.144 25.4561C25.214 25.4271 25.2776 25.3847 25.3311 25.3311C25.3847 25.2776 25.4271 25.214 25.4561 25.144C25.4851 25.0741 25.5 24.9991 25.5 24.9234C25.5 24.8477 25.4851 24.7727 25.4561 24.7027C25.4271 24.6328 25.3847 24.5692 25.3311 24.5156ZM11.6685 16.8552C11.6685 15.8294 11.9727 14.8266 12.5426 13.9736C13.1126 13.1207 13.9226 12.4559 14.8703 12.0633C15.8181 11.6708 16.861 11.5681 17.8671 11.7682C18.8732 11.9683 19.7974 12.4623 20.5227 13.1877C21.2481 13.913 21.7421 14.8372 21.9422 15.8433C22.1424 16.8495 22.0396 17.8923 21.6471 18.8401C21.2545 19.7878 20.5897 20.5979 19.7368 21.1678C18.8838 21.7377 17.881 22.0419 16.8552 22.0419C15.4801 22.0404 14.1617 21.4934 13.1893 20.5211C12.217 19.5487 11.67 18.2303 11.6685 16.8552Z" fill="black"/>
</svg>
