<svg width="120" height="24" viewBox="0 0 120 24" fill="none" xmlns="http://www.w3.org/2000/svg">
<g opacity="0.6">
<rect width="120" height="24" rx="12" fill="#EBFEF4"/>
<mask id="mask0_1570_10148" style="mask-type:alpha" maskUnits="userSpaceOnUse" x="10" y="5" width="14" height="14">
<rect x="10" y="5" width="14" height="14" fill="#D9D9D9"/>
</mask>
<g mask="url(#mask0_1570_10148)">
<path d="M16.9993 17.7183C16.215 17.7183 15.4756 17.5689 14.7811 17.2703C14.0866 16.9717 13.4783 16.5613 12.9563 16.0393C12.4342 15.5172 12.0245 14.9084 11.727 14.2127C11.4295 13.5171 11.2808 12.7771 11.2808 11.9927C11.2808 11.1987 11.4295 10.4574 11.727 9.76894C12.0245 9.08045 12.4342 8.47576 12.9563 7.95489C13.4783 7.43401 14.0866 7.02483 14.7811 6.72735C15.4756 6.42987 16.215 6.28113 16.9993 6.28113C17.7934 6.28113 18.5352 6.42987 19.2249 6.72735C19.9145 7.02483 20.5204 7.43401 21.0424 7.95489C21.5645 8.47576 21.9742 9.08045 22.2717 9.76894C22.5692 10.4574 22.7179 11.1987 22.7179 11.9927C22.7179 12.7771 22.5692 13.5171 22.2717 14.2127C21.9742 14.9084 21.5645 15.5172 21.0424 16.0393C20.5204 16.5613 19.9145 16.9717 19.2249 17.2703C18.5352 17.569 17.7934 17.7183 16.9993 17.7183ZM16.9993 16.5078C18.2493 16.5078 19.3131 16.0684 20.1909 15.1895C21.0686 14.3106 21.5075 13.245 21.5075 11.9927C21.5075 11.4789 21.4258 10.992 21.2624 10.5319C21.0991 10.0717 20.8699 9.6519 20.5751 9.2723L14.2754 15.5685C14.6504 15.868 15.0691 16.0994 15.5315 16.2628C15.9939 16.4262 16.4832 16.5078 16.9993 16.5078ZM13.4201 14.7132L19.7163 8.41347C19.3367 8.12096 18.9174 7.89418 18.4585 7.73313C17.9995 7.57208 17.5131 7.49156 16.9993 7.49156C15.7494 7.49156 14.6856 7.92927 13.8078 8.80469C12.9301 9.68011 12.4912 10.7428 12.4912 11.9927C12.4912 12.5065 12.5729 12.9935 12.7363 13.4536C12.8996 13.9137 13.1276 14.3336 13.4201 14.7132Z" fill="#008052"/>
</g>
<path d="M33.6123 17.2119C32.9652 17.2119 32.3408 17.0866 31.7393 16.8359C31.1423 16.5853 30.6159 16.2389 30.1602 15.7969C29.7044 15.3503 29.3398 14.8011 29.0664 14.1494C28.793 13.4932 28.6562 12.7868 28.6562 12.0303C28.6562 11.2738 28.793 10.5697 29.0664 9.91797C29.3398 9.26172 29.7044 8.71257 30.1602 8.27051C30.6159 7.82389 31.1423 7.47526 31.7393 7.22461C32.3408 6.97396 32.9652 6.84863 33.6123 6.84863C34.264 6.84863 34.8906 6.97396 35.4922 7.22461C36.0938 7.47526 36.6224 7.82389 37.0781 8.27051C37.5339 8.71257 37.8984 9.26172 38.1719 9.91797C38.4453 10.5697 38.582 11.2738 38.582 12.0303C38.582 12.7868 38.4453 13.4932 38.1719 14.1494C37.8984 14.8011 37.5339 15.3503 37.0781 15.7969C36.6224 16.2389 36.0938 16.5853 35.4922 16.8359C34.8906 17.0866 34.264 17.2119 33.6123 17.2119ZM33.6123 15.9199C33.9587 15.9199 34.2982 15.8698 34.6309 15.7695C34.9635 15.6693 35.278 15.512 35.5742 15.2979C35.875 15.0837 36.137 14.8262 36.3604 14.5254C36.5882 14.2246 36.7682 13.86 36.9004 13.4316C37.0326 13.0033 37.0986 12.5361 37.0986 12.0303C37.0986 11.5244 37.0326 11.0573 36.9004 10.6289C36.7682 10.2005 36.5882 9.83594 36.3604 9.53516C36.137 9.23438 35.875 8.97689 35.5742 8.7627C35.278 8.5485 34.9635 8.39128 34.6309 8.29102C34.2982 8.19076 33.9587 8.14062 33.6123 8.14062C33.1748 8.14062 32.7533 8.22266 32.3477 8.38672C31.9421 8.55078 31.5729 8.79004 31.2402 9.10449C30.9076 9.41439 30.641 9.82227 30.4404 10.3281C30.2399 10.834 30.1396 11.4014 30.1396 12.0303C30.1396 12.6592 30.2399 13.2266 30.4404 13.7324C30.641 14.2383 30.9076 14.6484 31.2402 14.9629C31.5729 15.2728 31.9421 15.5098 32.3477 15.6738C32.7533 15.8379 33.1748 15.9199 33.6123 15.9199ZM43.2715 17.2119C41.2572 17.2119 40.25 16.1888 40.25 14.1426V9.97266H41.5898V14.1699C41.5898 14.7669 41.7311 15.2249 42.0137 15.5439C42.2962 15.863 42.7155 16.0225 43.2715 16.0225C43.832 16.0225 44.2513 15.863 44.5293 15.5439C44.8118 15.2249 44.9531 14.7669 44.9531 14.1699V9.97266H46.3066V14.1426C46.3066 16.1888 45.2949 17.2119 43.2715 17.2119ZM52.3975 15.9473L52.4385 17.041C51.9964 17.1549 51.5407 17.2119 51.0713 17.2119C50.3239 17.2119 49.7747 17.0479 49.4238 16.7197C49.0729 16.3916 48.8975 15.8561 48.8975 15.1133V11.0801H47.7764V9.97266H48.8975V8.1543L50.2441 7.87402V9.97266H52.2471V11.0801H50.2441V14.9287C50.2441 15.3753 50.3512 15.6738 50.5654 15.8242C50.7796 15.9746 51.1055 16.0498 51.543 16.0498C51.8301 16.0498 52.1149 16.0156 52.3975 15.9473ZM60.5459 17.2119C59.8805 17.2119 59.2721 17.057 58.7207 16.7471C58.1738 16.4372 57.7386 15.9974 57.415 15.4277C57.0915 14.8535 56.9297 14.2064 56.9297 13.4863C56.9297 12.9395 57.0231 12.4336 57.21 11.9688C57.4014 11.4993 57.6589 11.1029 57.9824 10.7793C58.3105 10.4557 58.6956 10.2028 59.1377 10.0205C59.5843 9.83822 60.0583 9.74707 60.5596 9.74707C61.2249 9.74707 61.8311 9.90202 62.3779 10.2119C62.9294 10.5218 63.3669 10.9639 63.6904 11.5381C64.0186 12.1123 64.1826 12.7617 64.1826 13.4863C64.1826 14.2064 64.0186 14.8535 63.6904 15.4277C63.3669 15.9974 62.9294 16.4372 62.3779 16.7471C61.8265 17.057 61.2158 17.2119 60.5459 17.2119ZM60.5459 15.9746C61.1885 15.9746 61.7126 15.7513 62.1182 15.3047C62.5238 14.8535 62.7266 14.2474 62.7266 13.4863C62.7266 12.7161 62.5238 12.1055 62.1182 11.6543C61.7126 11.2031 61.1885 10.9775 60.5459 10.9775C59.9124 10.9775 59.3929 11.2031 58.9873 11.6543C58.5863 12.1055 58.3857 12.7161 58.3857 13.4863C58.3857 14.2474 58.5863 14.8535 58.9873 15.3047C59.3929 15.7513 59.9124 15.9746 60.5459 15.9746ZM69.1113 7.56641C68.6784 7.56641 68.3662 7.66211 68.1748 7.85352C67.988 8.04036 67.8945 8.34115 67.8945 8.75586V9.97266H69.6172V11.1074H67.8945V17H66.541V11.1074H65.3516V9.97266H66.541V8.57129C66.541 7.9196 66.7393 7.39779 67.1357 7.00586C67.5368 6.61393 68.1133 6.41797 68.8652 6.41797C69.1204 6.41797 69.3893 6.44076 69.6719 6.48633V7.59375C69.4076 7.57552 69.2207 7.56641 69.1113 7.56641ZM77.0068 17.2119C75.4027 17.2119 74.2451 16.5124 73.5342 15.1133L74.5049 14.3682C74.7236 14.7145 74.9447 15.0039 75.168 15.2363C75.3913 15.4688 75.6647 15.6624 75.9883 15.8174C76.3118 15.9723 76.6605 16.0498 77.0342 16.0498C77.5492 16.0498 77.9593 15.9176 78.2646 15.6533C78.5745 15.389 78.7295 15.0449 78.7295 14.6211C78.7295 14.2884 78.6338 14.0013 78.4424 13.7598C78.2555 13.5182 77.9867 13.2881 77.6357 13.0693C77.458 12.96 77.2119 12.8255 76.8975 12.666C76.5876 12.5065 76.3164 12.3698 76.084 12.2559C75.8561 12.1374 75.6055 11.9824 75.332 11.791C75.0632 11.5996 74.8421 11.4059 74.6689 11.21C74.4958 11.014 74.3499 10.7679 74.2314 10.4717C74.113 10.1709 74.0537 9.84505 74.0537 9.49414C74.0537 8.67839 74.3271 8.03353 74.874 7.55957C75.4255 7.08561 76.1318 6.84863 76.9932 6.84863C78.3604 6.84863 79.363 7.41374 80.001 8.54395L78.9961 9.30273C78.873 9.11133 78.75 8.94499 78.627 8.80371C78.5039 8.66243 78.3626 8.52799 78.2031 8.40039C78.0436 8.27279 77.8636 8.17708 77.6631 8.11328C77.4626 8.04492 77.2438 8.01074 77.0068 8.01074C76.5511 8.01074 76.1797 8.13379 75.8926 8.37988C75.61 8.62598 75.4688 8.94727 75.4688 9.34375C75.4688 9.65365 75.5553 9.92253 75.7285 10.1504C75.9062 10.3783 76.1592 10.5902 76.4873 10.7861C76.6742 10.9001 76.9271 11.0368 77.2461 11.1963C77.5651 11.3558 77.8454 11.4948 78.0869 11.6133C78.3285 11.7318 78.5905 11.889 78.873 12.085C79.1556 12.2764 79.388 12.4746 79.5703 12.6797C79.7572 12.8802 79.9121 13.1331 80.0352 13.4385C80.1628 13.7438 80.2266 14.0765 80.2266 14.4365C80.2266 15.3024 79.9258 15.9814 79.3242 16.4736C78.7272 16.9658 77.9548 17.2119 77.0068 17.2119ZM85.8662 15.9473L85.9072 17.041C85.4652 17.1549 85.0094 17.2119 84.54 17.2119C83.7926 17.2119 83.2435 17.0479 82.8926 16.7197C82.5417 16.3916 82.3662 15.8561 82.3662 15.1133V11.0801H81.2451V9.97266H82.3662V8.1543L83.7129 7.87402V9.97266H85.7158V11.0801H83.7129V14.9287C83.7129 15.3753 83.82 15.6738 84.0342 15.8242C84.2484 15.9746 84.5742 16.0498 85.0117 16.0498C85.2988 16.0498 85.5837 16.0156 85.8662 15.9473ZM90.7334 17.2119C90.068 17.2119 89.4596 17.057 88.9082 16.7471C88.3613 16.4372 87.9261 15.9974 87.6025 15.4277C87.279 14.8535 87.1172 14.2064 87.1172 13.4863C87.1172 12.9395 87.2106 12.4336 87.3975 11.9688C87.5889 11.4993 87.8464 11.1029 88.1699 10.7793C88.498 10.4557 88.8831 10.2028 89.3252 10.0205C89.7718 9.83822 90.2458 9.74707 90.7471 9.74707C91.4124 9.74707 92.0186 9.90202 92.5654 10.2119C93.1169 10.5218 93.5544 10.9639 93.8779 11.5381C94.2061 12.1123 94.3701 12.7617 94.3701 13.4863C94.3701 14.2064 94.2061 14.8535 93.8779 15.4277C93.5544 15.9974 93.1169 16.4372 92.5654 16.7471C92.014 17.057 91.4033 17.2119 90.7334 17.2119ZM90.7334 15.9746C91.376 15.9746 91.9001 15.7513 92.3057 15.3047C92.7113 14.8535 92.9141 14.2474 92.9141 13.4863C92.9141 12.7161 92.7113 12.1055 92.3057 11.6543C91.9001 11.2031 91.376 10.9775 90.7334 10.9775C90.0999 10.9775 89.5804 11.2031 89.1748 11.6543C88.7738 12.1055 88.5732 12.7161 88.5732 13.4863C88.5732 14.2474 88.7738 14.8535 89.1748 15.3047C89.5804 15.7513 90.0999 15.9746 90.7334 15.9746ZM95.8125 13.4863C95.8125 12.4017 96.1475 11.5085 96.8174 10.8066C97.4919 10.1003 98.3577 9.74707 99.415 9.74707C99.9163 9.74707 100.374 9.82454 100.789 9.97949C101.204 10.1299 101.539 10.319 101.794 10.5469L101.302 11.6953C101.097 11.4993 100.835 11.3353 100.516 11.2031C100.201 11.071 99.848 11.0049 99.4561 11.0049C98.7861 11.0049 98.2484 11.2419 97.8428 11.7158C97.4417 12.1898 97.2412 12.7799 97.2412 13.4863C97.2412 14.1882 97.4486 14.776 97.8633 15.25C98.2826 15.724 98.8271 15.9609 99.4971 15.9609C100.249 15.9609 100.908 15.7148 101.473 15.2227L101.992 16.2754C101.268 16.8997 100.418 17.2119 99.4424 17.2119C98.6813 17.2119 98.0228 17.0501 97.4668 16.7266C96.9154 16.3984 96.5007 15.9564 96.2227 15.4004C95.9492 14.8444 95.8125 14.2064 95.8125 13.4863ZM109.751 17H108.158L105.677 13.9648L104.938 14.7168V17H103.578V6.5H104.938V13.2471L107.919 9.97266H109.498L106.572 13.0215L109.751 17Z" fill="#008052"/>
</g>
</svg>
