<svg width="25" height="25" viewBox="0 0 25 25" fill="none" xmlns="http://www.w3.org/2000/svg">
<path d="M21.5898 6.0259C21.5194 5.94165 21.4313 5.87389 21.3319 5.8274C21.2324 5.7809 21.124 5.75682 21.0142 5.75684H5.89041L5.32041 2.62277C5.28901 2.44996 5.19796 2.29365 5.06313 2.18109C4.9283 2.06853 4.75824 2.00686 4.5826 2.00684H2.26416C2.06525 2.00684 1.87448 2.08585 1.73383 2.22651C1.59318 2.36716 1.51416 2.55792 1.51416 2.75684C1.51416 2.95575 1.59318 3.14651 1.73383 3.28717C1.87448 3.42782 2.06525 3.50684 2.26416 3.50684H3.95166L6.34791 16.659C6.4185 17.0491 6.59087 17.4136 6.8476 17.7156C6.49327 18.0465 6.23752 18.4692 6.10872 18.9366C5.97991 19.404 5.98308 19.898 6.11788 20.3637C6.25267 20.8295 6.51382 21.2488 6.87237 21.5751C7.23092 21.9015 7.67286 22.1222 8.14918 22.2128C8.6255 22.3033 9.1176 22.2602 9.57089 22.0881C10.0242 21.9161 10.421 21.6218 10.7173 21.238C11.0135 20.8542 11.1977 20.3959 11.2494 19.9138C11.3011 19.4317 11.2183 18.9447 11.0101 18.5068H15.2682C15.1004 18.8581 15.0136 19.2425 15.0142 19.6318C15.0142 20.151 15.1681 20.6585 15.4566 21.0902C15.745 21.5219 16.155 21.8583 16.6346 22.057C17.1143 22.2557 17.6421 22.3077 18.1513 22.2064C18.6605 22.1051 19.1282 21.8551 19.4953 21.488C19.8624 21.1209 20.1124 20.6531 20.2137 20.1439C20.315 19.6347 20.263 19.1069 20.0643 18.6273C19.8657 18.1476 19.5292 17.7377 19.0975 17.4492C18.6659 17.1608 18.1583 17.0068 17.6392 17.0068H8.56135C8.38571 17.0068 8.21565 16.9451 8.08081 16.8326C7.94598 16.72 7.85493 16.5637 7.82354 16.3909L7.52635 14.7568H18.4013C18.9283 14.7568 19.4384 14.5718 19.8429 14.2341C20.2474 13.8964 20.5206 13.4275 20.6148 12.909L21.7548 6.6409C21.7741 6.53256 21.7693 6.4213 21.7408 6.31502C21.7123 6.20873 21.6607 6.11003 21.5898 6.0259ZM9.76416 19.6318C9.76416 19.8543 9.69818 20.0718 9.57456 20.2569C9.45095 20.4419 9.27525 20.5861 9.06968 20.6712C8.86411 20.7563 8.63791 20.7786 8.41968 20.7352C8.20145 20.6918 8.001 20.5847 7.84367 20.4273C7.68633 20.27 7.57919 20.0695 7.53578 19.8513C7.49237 19.6331 7.51465 19.4069 7.5998 19.2013C7.68494 18.9958 7.82914 18.82 8.01414 18.6964C8.19915 18.5728 8.41666 18.5068 8.63916 18.5068C8.93753 18.5068 9.22368 18.6254 9.43466 18.8363C9.64563 19.0473 9.76416 19.3335 9.76416 19.6318ZM18.7642 19.6318C18.7642 19.8543 18.6982 20.0718 18.5746 20.2569C18.4509 20.4419 18.2752 20.5861 18.0697 20.6712C17.8641 20.7563 17.6379 20.7786 17.4197 20.7352C17.2015 20.6918 17.001 20.5847 16.8437 20.4273C16.6863 20.27 16.5792 20.0695 16.5358 19.8513C16.4924 19.6331 16.5146 19.4069 16.5998 19.2013C16.6849 18.9958 16.8291 18.82 17.0141 18.6964C17.1991 18.5728 17.4167 18.5068 17.6392 18.5068C17.9375 18.5068 18.2237 18.6254 18.4347 18.8363C18.6456 19.0473 18.7642 19.3335 18.7642 19.6318ZM19.1392 12.6409C19.1077 12.8142 19.0162 12.9709 18.8808 13.0835C18.7454 13.1961 18.5747 13.2575 18.3985 13.2568H7.25354L6.16322 7.25684H20.1151L19.1392 12.6409Z" fill="#3D3D3D"/>
</svg>
