<svg width="25" height="25" viewBox="0 0 25 25" fill="none" xmlns="http://www.w3.org/2000/svg">
<g clip-path="url(#clip0_1454_10232)">
<path d="M24.6802 17.9605C24.6491 17.8671 24.5999 17.7807 24.5353 17.7063C24.4708 17.6318 24.3922 17.5709 24.3041 17.5268C24.216 17.4828 24.1201 17.4565 24.0219 17.4495C23.9236 17.4425 23.8249 17.455 23.7315 17.4861L22.0984 18.0308L19.389 12.6121C19.3267 12.4876 19.231 12.3829 19.1127 12.3098C18.9943 12.2366 18.8579 12.1978 18.7187 12.1977H11.2187V9.94771H16.4687C16.6676 9.94771 16.8584 9.86869 16.999 9.72804C17.1397 9.58738 17.2187 9.39662 17.2187 9.19771C17.2187 8.99879 17.1397 8.80803 16.999 8.66738C16.8584 8.52672 16.6676 8.44771 16.4687 8.44771H11.2187V7.60396C11.9257 7.42141 12.5418 6.98728 12.9516 6.38295C13.3614 5.77862 13.5368 5.04557 13.4448 4.32121C13.3528 3.59685 12.9997 2.93091 12.4519 2.44821C11.904 1.96552 11.1989 1.69922 10.4687 1.69922C9.73851 1.69922 9.03339 1.96552 8.48551 2.44821C7.93763 2.93091 7.5846 3.59685 7.4926 4.32121C7.40059 5.04557 7.57593 5.77862 7.98574 6.38295C8.39554 6.98728 9.01169 7.42141 9.71869 7.60396V8.61739C8.10156 8.987 6.67715 9.93915 5.71734 11.2921C4.75752 12.6451 4.32951 14.3041 4.515 15.9525C4.7005 17.6009 5.48649 19.1233 6.72298 20.2291C7.95947 21.3349 9.55986 21.9467 11.2187 21.9477C14.3612 21.9477 17.1896 19.8186 17.9452 16.8852C17.9699 16.7898 17.9755 16.6905 17.9617 16.5929C17.9479 16.4953 17.9151 16.4014 17.865 16.3165C17.815 16.2317 17.7487 16.1575 17.67 16.0982C17.5912 16.0389 17.5016 15.9958 17.4062 15.9711C17.3108 15.9465 17.2114 15.9409 17.1139 15.9547C17.0163 15.9685 16.9224 16.0013 16.8375 16.0514C16.7526 16.1014 16.6784 16.1677 16.6192 16.2464C16.5599 16.3252 16.5167 16.4148 16.4921 16.5102C15.9146 18.7602 13.6477 20.4477 11.2187 20.4477C9.95794 20.4473 8.73944 19.9932 7.7859 19.1684C6.83237 18.3436 6.20748 17.2032 6.02546 15.9557C5.84344 14.7081 6.11643 13.4368 6.79455 12.3739C7.47267 11.3111 8.51062 10.5277 9.71869 10.1671V12.9477C9.71869 13.1466 9.7977 13.3374 9.93836 13.478C10.079 13.6187 10.2698 13.6977 10.4687 13.6977H18.2546L21.0474 19.2833C21.1284 19.4447 21.2648 19.5715 21.4317 19.6404C21.5985 19.7092 21.7847 19.7156 21.9559 19.6583L24.2059 18.9083C24.3944 18.8454 24.5502 18.7103 24.6392 18.5326C24.7281 18.3549 24.7429 18.1491 24.6802 17.9605ZM8.96869 4.69771C8.96869 4.40103 9.05666 4.11102 9.22148 3.86435C9.3863 3.61768 9.62057 3.42542 9.89466 3.31189C10.1688 3.19836 10.4704 3.16865 10.7613 3.22653C11.0523 3.28441 11.3196 3.42727 11.5293 3.63705C11.7391 3.84682 11.882 4.1141 11.9399 4.40507C11.9977 4.69604 11.968 4.99764 11.8545 5.27173C11.741 5.54582 11.5487 5.78009 11.302 5.94491C11.0554 6.10973 10.7654 6.19771 10.4687 6.19771C10.0709 6.19771 9.68933 6.03967 9.40803 5.75837C9.12672 5.47706 8.96869 5.09553 8.96869 4.69771Z" fill="black"/>
</g>
<defs>
<clipPath id="clip0_1454_10232">
<rect width="24" height="24" fill="white" transform="translate(0.71875 0.197754)"/>
</clipPath>
</defs>
</svg>
