<svg width="20" height="21" viewBox="0 0 20 21" fill="none" xmlns="http://www.w3.org/2000/svg">
<path d="M19.9681 15.3023C19.9421 15.2244 19.9011 15.1524 19.8473 15.0904C19.7935 15.0284 19.7281 14.9776 19.6546 14.9409C19.5812 14.9042 19.5013 14.8823 19.4194 14.8765C19.3375 14.8707 19.2553 14.881 19.1775 14.907L17.8165 15.3609L15.5587 10.8453C15.5068 10.7416 15.4271 10.6543 15.3284 10.5933C15.2298 10.5324 15.1161 10.5 15.0001 10.5H8.75011V8.62496H13.1251C13.2909 8.62496 13.4498 8.55911 13.5671 8.4419C13.6843 8.32469 13.7501 8.16572 13.7501 7.99996C13.7501 7.8342 13.6843 7.67523 13.5671 7.55802C13.4498 7.44081 13.2909 7.37496 13.1251 7.37496H8.75011V6.67184C9.33927 6.51971 9.85273 6.15794 10.1942 5.65433C10.5357 5.15072 10.6819 4.53984 10.6052 3.93621C10.5285 3.33258 10.2343 2.77763 9.77776 2.37538C9.32119 1.97314 8.73359 1.75122 8.12511 1.75122C7.51663 1.75122 6.92903 1.97314 6.47246 2.37538C6.0159 2.77763 5.72171 3.33258 5.64504 3.93621C5.56836 4.53984 5.71448 5.15072 6.05598 5.65433C6.39749 6.15794 6.91095 6.51971 7.50011 6.67184V7.51637C6.1525 7.82437 4.9655 8.61783 4.16565 9.74529C3.36581 10.8727 3.00913 12.2553 3.16371 13.6289C3.31828 15.0026 3.97328 16.2713 5.00369 17.1928C6.03409 18.1143 7.36775 18.6241 8.75011 18.625C11.3689 18.625 13.7259 16.8507 14.3556 14.4062C14.3761 14.3267 14.3808 14.2439 14.3693 14.1626C14.3578 14.0813 14.3304 14.003 14.2887 13.9323C14.247 13.8616 14.1918 13.7998 14.1262 13.7504C14.0606 13.701 13.9859 13.665 13.9064 13.6445C13.8268 13.624 13.7441 13.6193 13.6628 13.6308C13.5815 13.6423 13.5032 13.6696 13.4325 13.7113C13.3617 13.7531 13.2999 13.8083 13.2505 13.8739C13.2011 13.9395 13.1652 14.0142 13.1446 14.0937C12.6634 15.9687 10.7743 17.375 8.75011 17.375C7.69948 17.3746 6.68407 16.9962 5.88946 16.3089C5.09485 15.6215 4.57411 14.6712 4.42242 13.6316C4.27074 12.592 4.49823 11.5325 5.06333 10.6468C5.62843 9.76108 6.49338 9.10831 7.50011 8.80777V11.125C7.50011 11.2907 7.56596 11.4497 7.68317 11.5669C7.80038 11.6841 7.95935 11.75 8.12511 11.75H14.6134L16.9407 16.4046C17.0082 16.5391 17.1219 16.6448 17.2609 16.7022C17.4 16.7596 17.5551 16.7649 17.6978 16.7171L19.5728 16.0921C19.7299 16.0397 19.8597 15.9271 19.9338 15.779C20.008 15.6309 20.0203 15.4595 19.9681 15.3023ZM6.87511 4.24996C6.87511 4.00273 6.94842 3.76106 7.08577 3.5555C7.22312 3.34994 7.41835 3.18972 7.64676 3.09511C7.87516 3.0005 8.1265 2.97575 8.36897 3.02398C8.61145 3.07221 8.83418 3.19126 9.00899 3.36608C9.18381 3.54089 9.30286 3.76362 9.35109 4.0061C9.39932 4.24857 9.37457 4.49991 9.27996 4.72831C9.18535 4.95672 9.02513 5.15195 8.81957 5.2893C8.61401 5.42665 8.37234 5.49996 8.12511 5.49996C7.79359 5.49996 7.47565 5.36826 7.24123 5.13384C7.00681 4.89942 6.87511 4.58148 6.87511 4.24996Z" fill="white"/>
</svg>
