{
  "accessors": [
    {
      "bufferView": 2,
      "componentType": 5126,
      "count": 1100,
      "max": [
        0.02366168238222599,
        0.023661835119128227,
        0.06493465602397919
      ],
      "min": [
        -0.023661306127905846,
        -0.023662563413381577,
        0.0
      ],
      "type": "VEC3"
    },
    {
      "bufferView": 2,
      "byteOffset": 13200,
      "componentType": 5126,
      "count": 1100,
      "max": [
        0.999701976776123,
        0.999701976776123,
        0.997507631778717
      ],
      "min": [
        -0.999701976776123,
        -0.999701976776123,
        -1.0
      ],
      "type": "VEC3"
    },
    {
      "bufferView": 3,
      "componentType": 5126,
      "count": 1100,
      "max": [
        0.9999734163284302,
        0.9999734163284302,
        0.9241570234298706,
        1.0
      ],
      "min": [
        -0.9999739527702332,
        -0.9999734163284302,
        -0.9822764992713928,
        1.0
      ],
      "type": "VEC4"
    },
    {
      "bufferView": 1,
      "componentType": 5126,
      "count": 1100,
      "max": [
        1.0,
        0.9796844720840454
      ],
      "min": [
        0.0,
        0.0
      ],
      "type": "VEC2"
    },
    {
      "bufferView": 1,
      "byteOffset": 8800,
      "componentType": 5126,
      "count": 1100,
      "max": [
        1.0,
        0.9796844720840454
      ],
      "min": [
        0.0,
        0.0
      ],
      "type": "VEC2"
    },
    {
      "bufferView": 0,
      "componentType": 5125,
      "count": 4980,
      "type": "SCALAR"
    },
    {
      "bufferView": 2,
      "byteOffset": 26400,
      "componentType": 5126,
      "count": 2687,
      "max": [
        0.03651696816086769,
        0.013221370987594128,
        0.003607654944062233
      ],
      "min": [
        -0.017855126410722733,
        -0.04115072265267372,
        -0.010498015210032463
      ],
      "type": "VEC3"
    },
    {
      "bufferView": 2,
      "byteOffset": 58644,
      "componentType": 5126,
      "count": 2687,
      "max": [
        0.9999865293502808,
        0.9969482421875,
        1.0
      ],
      "min": [
        -0.9982439875602722,
        -0.996950626373291,
        -1.0
      ],
      "type": "VEC3"
    },
    {
      "bufferView": 1,
      "byteOffset": 17600,
      "componentType": 5126,
      "count": 2687,
      "max": [
        0.0,
        0.0
      ],
      "min": [
        0.0,
        0.0
      ],
      "type": "VEC2"
    },
    {
      "bufferView": 0,
      "byteOffset": 19920,
      "componentType": 5125,
      "count": 12342,
      "type": "SCALAR"
    },
    {
      "bufferView": 2,
      "byteOffset": 90888,
      "componentType": 5126,
      "count": 412,
      "max": [
        0.022484799847006798,
        0.02248494327068329,
        0.0483146570622921
      ],
      "min": [
        -0.022484442219138145,
        -0.02248563803732395,
        0.020675092935562134
      ],
      "type": "VEC3"
    },
    {
      "bufferView": 2,
      "byteOffset": 95832,
      "componentType": 5126,
      "count": 412,
      "max": [
        0.9957857131958008,
        0.9957857131958008,
        0.7184466123580933
      ],
      "min": [
        -0.9957857131958008,
        -0.9957857131958008,
        -0.7600510716438293
      ],
      "type": "VEC3"
    },
    {
      "bufferView": 3,
      "byteOffset": 17600,
      "componentType": 5126,
      "count": 412,
      "max": [
        0.9999963045120239,
        0.9999598860740662,
        0.9946420788764954,
        1.0
      ],
      "min": [
        -0.9999961256980896,
        -0.9999598264694214,
        -0.9957769513130188,
        -1.0
      ],
      "type": "VEC4"
    },
    {
      "bufferView": 1,
      "byteOffset": 39096,
      "componentType": 5126,
      "count": 412,
      "max": [
        1.1130778789520264,
        0.9558138847351074
      ],
      "min": [
        0.010396034456789494,
        0.10532702505588531
      ],
      "type": "VEC2"
    },
    {
      "bufferView": 1,
      "byteOffset": 42392,
      "componentType": 5126,
      "count": 412,
      "max": [
        1.1130778789520264,
        0.9558138847351074
      ],
      "min": [
        0.010396034456789494,
        0.10532702505588531
      ],
      "type": "VEC2"
    },
    {
      "bufferView": 1,
      "byteOffset": 45688,
      "componentType": 5126,
      "count": 412,
      "max": [
        1.1130778789520264,
        0.9558138847351074
      ],
      "min": [
        0.010396034456789494,
        0.10532702505588531
      ],
      "type": "VEC2"
    },
    {
      "bufferView": 0,
      "byteOffset": 69288,
      "componentType": 5125,
      "count": 1152,
      "type": "SCALAR"
    }
  ],
  "asset": {
    "extras": {
      "author": "Wittybacon (https://sketchfab.com/wittybacon)",
      "license": "CC-BY-4.0 (http://creativecommons.org/licenses/by/4.0/)",
      "source": "https://sketchfab.com/3d-models/starbucks-coffee-paper-cup-c34893d7ef90490b8d65d87753aad8ad",
      "title": "Starbucks Coffee Paper Cup"
    },
    "generator": "Sketchfab-12.64.0",
    "version": "2.0"
  },
  "bufferViews": [
    {
      "buffer": 0,
      "byteLength": 73896,
      "name": "floatBufferViews",
      "target": 34963
    },
    {
      "buffer": 0,
      "byteLength": 48984,
      "byteOffset": 73896,
      "byteStride": 8,
      "name": "floatBufferViews",
      "target": 34962
    },
    {
      "buffer": 0,
      "byteLength": 100776,
      "byteOffset": 122880,
      "byteStride": 12,
      "name": "floatBufferViews",
      "target": 34962
    },
    {
      "buffer": 0,
      "byteLength": 24192,
      "byteOffset": 223656,
      "byteStride": 16,
      "name": "floatBufferViews",
      "target": 34962
    }
  ],
  "buffers": [
    {
      "byteLength": 247848,
      "uri": "cup.bin"
    }
  ],
  "images": [
    {
      "uri": "textures/Material.002_metallicRoughness.png"
    },
    {
      "uri": "textures/Material.002_normal.png"
    },
    {
      "uri": "textures/Paper_baseColor.png"
    }
  ],
  "materials": [
    {
      "doubleSided": true,
      "name": "Material.002",
      "normalTexture": {
        "index": 1
      },
      "pbrMetallicRoughness": {
        "baseColorFactor": [
          0.8,
          0.8,
          0.8,
          1.0
        ],
        "metallicFactor": 0.0,
        "metallicRoughnessTexture": {
          "index": 0
        },
        "roughnessFactor": 0.1534030998
      }
    },
    {
      "doubleSided": true,
      "name": "Material.001",
      "pbrMetallicRoughness": {
        "baseColorFactor": [
          0.8,
          0.8,
          0.8,
          1.0
        ],
        "metallicFactor": 0.0,
        "roughnessFactor": 0.1109175752
      }
    },
    {
      "doubleSided": true,
      "name": "Paper",
      "normalTexture": {
        "index": 1
      },
      "pbrMetallicRoughness": {
        "baseColorTexture": {
          "index": 2
        },
        "metallicFactor": 0.0,
        "metallicRoughnessTexture": {
          "index": 0
        },
        "roughnessFactor": 0.2747903129
      }
    }
  ],
  "meshes": [
    {
      "name": "Circle_Material.002_0",
      "primitives": [
        {
          "attributes": {
            "NORMAL": 1,
            "POSITION": 0,
            "TANGENT": 2,
            "TEXCOORD_0": 3,
            "TEXCOORD_1": 4
          },
          "indices": 5,
          "material": 0,
          "mode": 4
        }
      ]
    },
    {
      "name": "Circle.001_Material.001_0",
      "primitives": [
        {
          "attributes": {
            "NORMAL": 7,
            "POSITION": 6,
            "TEXCOORD_0": 8
          },
          "indices": 9,
          "material": 1,
          "mode": 4
        }
      ]
    },
    {
      "name": "Circle.002_Paper_0",
      "primitives": [
        {
          "attributes": {
            "NORMAL": 11,
            "POSITION": 10,
            "TANGENT": 12,
            "TEXCOORD_0": 13,
            "TEXCOORD_1": 14,
            "TEXCOORD_2": 15
          },
          "indices": 16,
          "material": 2,
          "mode": 4
        }
      ]
    }
  ],
  "nodes": [
    {
      "children": [
        1
      ],
      "matrix": [
        1.0,
        0.0,
        0.0,
        0.0,
        0.0,
        2.220446049250313e-16,
        -1.0,
        0.0,
        0.0,
        1.0,
        2.220446049250313e-16,
        0.0,
        0.0,
        0.0,
        0.0,
        1.0
      ],
      "name": "Sketchfab_model"
    },
    {
      "children": [
        2
      ],
      "matrix": [
        0.009999999776482582,
        0.0,
        0.0,
        0.0,
        0.0,
        0.0,
        0.009999999776482582,
        0.0,
        0.0,
        -0.009999999776482582,
        0.0,
        0.0,
        0.0,
        0.0,
        0.0,
        1.0
      ],
      "name": "8c133f4d532b4f6abf71872f3554a098.fbx"
    },
    {
      "children": [
        3,
        5,
        7
      ],
      "name": "RootNode"
    },
    {
      "children": [
        4
      ],
      "matrix": [
        100.0,
        0.0,
        0.0,
        0.0,
        0.0,
        -1.629206793918314e-05,
        -99.99999999999868,
        0.0,
        0.0,
        99.99999999999868,
        -1.629206793918314e-05,
        0.0,
        0.0,
        0.0,
        0.0,
        1.0
      ],
      "name": "Circle"
    },
    {
      "mesh": 0,
      "name": "Circle_Material.002_0"
    },
    {
      "children": [
        6
      ],
      "matrix": [
        100.0,
        0.0,
        0.0,
        0.0,
        -0.0,
        -1.629206793918314e-05,
        -99.99999999999868,
        0.0,
        0.0,
        99.99999999999868,
        -1.629206793918314e-05,
        0.0,
        -0.9330931305885315,
        7.027860641479492,
        -1.3964664936065674,
        1.0
      ],
      "name": "Circle.001"
    },
    {
      "mesh": 1,
      "name": "Circle.001_Material.001_0"
    },
    {
      "children": [
        8
      ],
      "matrix": [
        100.0,
        0.0,
        0.0,
        0.0,
        0.0,
        -1.629206793918314e-05,
        -99.99999999999868,
        0.0,
        0.0,
        99.99999999999868,
        -1.629206793918314e-05,
        0.0,
        0.0,
        0.0,
        0.0,
        1.0
      ],
      "name": "Circle.002"
    },
    {
      "mesh": 2,
      "name": "Circle.002_Paper_0"
    }
  ],
  "samplers": [
    {
      "magFilter": 9729,
      "minFilter": 9987,
      "wrapS": 10497,
      "wrapT": 10497
    }
  ],
  "scene": 0,
  "scenes": [
    {
      "name": "Sketchfab_Scene",
      "nodes": [
        0
      ]
    }
  ],
  "textures": [
    {
      "sampler": 0,
      "source": 0
    },
    {
      "sampler": 0,
      "source": 1
    },
    {
      "sampler": 0,
      "source": 2
    }
  ]
}
